<?xml version="1.0" encoding="UTF-8" standalone="no"?>
<!DOCTYPE svg PUBLIC "-//W3C//DTD SVG 1.1//EN"
 "http://www.w3.org/Graphics/SVG/1.1/DTD/svg11.dtd">
<!-- Generated by graphviz version 2.47.3 (20210619.1520)
 -->
<!-- Title: dependencies Pages: 1 -->
<svg width="228pt" height="174pt"
 viewBox="0.00 0.00 228.00 173.80" xmlns="http://www.w3.org/2000/svg" xmlns:xlink="http://www.w3.org/1999/xlink">
<g id="graph0" class="graph" transform="scale(1 1) rotate(0) translate(4 169.8)">
<title>dependencies</title>
<polygon fill="white" stroke="transparent" points="-4,4 -4,-169.8 224,-169.8 224,4 -4,4"/>
<text text-anchor="middle" x="110" y="-8.2" font-family="sans-serif" font-size="14.00">dependencies</text>
<g id="clust1" class="cluster">
<title>cluster_PokemonCenterModule</title>
<polygon fill="none" stroke="black" stroke-dasharray="1,5" points="8,-32.8 8,-157.8 212,-157.8 212,-32.8 8,-32.8"/>
</g>
<g id="clust2" class="cluster">
<title>cluster_PokemonCenterModule_declarations</title>
<polygon fill="none" stroke="black" points="16,-40.8 16,-92.8 204,-92.8 204,-40.8 16,-40.8"/>
</g>
<!-- PokemonCenterComponent -->
<g id="node1" class="node">
<title>PokemonCenterComponent</title>
<polygon fill="#ffffb3" stroke="black" points="195.54,-84.8 24.46,-84.8 24.46,-48.8 195.54,-48.8 195.54,-84.8"/>
<text text-anchor="middle" x="110" y="-62.6" font-family="Times,serif" font-size="14.00">PokemonCenterComponent</text>
</g>
<!-- PokemonCenterModule -->
<g id="node2" class="node">
<title>PokemonCenterModule</title>
<polygon fill="#8dd3c7" stroke="black" points="184.75,-149.8 181.75,-153.8 160.75,-153.8 157.75,-149.8 35.25,-149.8 35.25,-113.8 184.75,-113.8 184.75,-149.8"/>
<text text-anchor="middle" x="110" y="-127.6" font-family="Times,serif" font-size="14.00">PokemonCenterModule</text>
</g>
<!-- PokemonCenterComponent&#45;&gt;PokemonCenterModule -->
<g id="edge1" class="edge">
<title>PokemonCenterComponent&#45;&gt;PokemonCenterModule</title>
<path fill="none" stroke="black" d="M110,-84.91C110,-84.91 110,-103.79 110,-103.79"/>
<polygon fill="black" stroke="black" points="106.5,-103.79 110,-113.79 113.5,-103.79 106.5,-103.79"/>
</g>
</g>
</svg>
