<?xml version="1.0" encoding="UTF-8" standalone="no"?>
<!DOCTYPE svg PUBLIC "-//W3C//DTD SVG 1.1//EN"
 "http://www.w3.org/Graphics/SVG/1.1/DTD/svg11.dtd">
<!-- Generated by graphviz version 2.47.3 (20210619.1520)
 -->
<!-- Title: dependencies Pages: 1 -->
<svg width="748pt" height="247pt"
 viewBox="0.00 0.00 748.00 246.80" xmlns="http://www.w3.org/2000/svg" xmlns:xlink="http://www.w3.org/1999/xlink">
<g id="graph0" class="graph" transform="scale(1 1) rotate(0) translate(4 242.8)">
<title>dependencies</title>
<polygon fill="white" stroke="transparent" points="-4,4 -4,-242.8 744,-242.8 744,4 -4,4"/>
<text text-anchor="middle" x="370" y="-8.2" font-family="sans-serif" font-size="14.00">dependencies</text>
<g id="clust1" class="cluster">
<title>cluster_AppModule</title>
<polygon fill="none" stroke="black" stroke-dasharray="1,5" points="8,-32.8 8,-230.8 298,-230.8 298,-32.8 8,-32.8"/>
</g>
<g id="clust2" class="cluster">
<title>cluster_AppModule_declarations</title>
<polygon fill="none" stroke="black" points="168,-40.8 168,-92.8 290,-92.8 290,-40.8 168,-40.8"/>
</g>
<g id="clust4" class="cluster">
<title>cluster_AppModule_imports</title>
<polygon fill="none" stroke="black" points="16,-40.8 16,-92.8 160,-92.8 160,-40.8 16,-40.8"/>
</g>
<g id="clust6" class="cluster">
<title>cluster_AppModule_bootstrap</title>
<polygon fill="none" stroke="black" points="96,-170.8 96,-222.8 220,-222.8 220,-170.8 96,-170.8"/>
</g>
<g id="clust14" class="cluster">
<title>cluster_PokemonCenterModule</title>
<polygon fill="none" stroke="black" stroke-dasharray="1,5" points="306,-32.8 306,-157.8 510,-157.8 510,-32.8 306,-32.8"/>
</g>
<g id="clust15" class="cluster">
<title>cluster_PokemonCenterModule_declarations</title>
<polygon fill="none" stroke="black" points="314,-40.8 314,-92.8 502,-92.8 502,-40.8 314,-40.8"/>
</g>
<g id="clust21" class="cluster">
<title>cluster_SelectedPokemonModule</title>
<polygon fill="none" stroke="black" stroke-dasharray="1,5" points="518,-32.8 518,-157.8 732,-157.8 732,-32.8 518,-32.8"/>
</g>
<g id="clust22" class="cluster">
<title>cluster_SelectedPokemonModule_declarations</title>
<polygon fill="none" stroke="black" points="526,-40.8 526,-92.8 724,-92.8 724,-40.8 526,-40.8"/>
</g>
<!-- AppComponent -->
<g id="node1" class="node">
<title>AppComponent</title>
<polygon fill="#ffffb3" stroke="black" points="281.94,-84.8 176.06,-84.8 176.06,-48.8 281.94,-48.8 281.94,-84.8"/>
<text text-anchor="middle" x="229" y="-62.6" font-family="Times,serif" font-size="14.00">AppComponent</text>
</g>
<!-- AppModule -->
<g id="node2" class="node">
<title>AppModule</title>
<polygon fill="#8dd3c7" stroke="black" points="199.66,-149.8 196.66,-153.8 175.66,-153.8 172.66,-149.8 116.34,-149.8 116.34,-113.8 199.66,-113.8 199.66,-149.8"/>
<text text-anchor="middle" x="158" y="-127.6" font-family="Times,serif" font-size="14.00">AppModule</text>
</g>
<!-- AppComponent&#45;&gt;AppModule -->
<g id="edge1" class="edge">
<title>AppComponent&#45;&gt;AppModule</title>
<path fill="none" stroke="black" d="M188.05,-84.91C188.05,-84.91 188.05,-103.79 188.05,-103.79"/>
<polygon fill="black" stroke="black" points="184.55,-103.79 188.05,-113.79 191.55,-103.79 184.55,-103.79"/>
</g>
<!-- AppComponent  -->
<g id="node4" class="node">
<title>AppComponent </title>
<polygon fill="#80b1d3" stroke="black" points="212.44,-214.8 103.56,-214.8 103.56,-178.8 212.44,-178.8 212.44,-214.8"/>
<text text-anchor="middle" x="158" y="-192.6" font-family="Times,serif" font-size="14.00">AppComponent </text>
</g>
<!-- AppModule&#45;&gt;AppComponent  -->
<g id="edge3" class="edge">
<title>AppModule&#45;&gt;AppComponent </title>
<path fill="none" stroke="black" stroke-dasharray="1,5" d="M158,-149.91C158,-149.91 158,-168.79 158,-168.79"/>
<polygon fill="black" stroke="black" points="154.5,-168.79 158,-178.79 161.5,-168.79 154.5,-168.79"/>
</g>
<!-- AppRoutingModule -->
<g id="node3" class="node">
<title>AppRoutingModule</title>
<polygon fill="#8dd3c7" stroke="black" points="152.27,-84.8 149.27,-88.8 128.27,-88.8 125.27,-84.8 23.73,-84.8 23.73,-48.8 152.27,-48.8 152.27,-84.8"/>
<text text-anchor="middle" x="88" y="-62.6" font-family="Times,serif" font-size="14.00">AppRoutingModule</text>
</g>
<!-- AppRoutingModule&#45;&gt;AppModule -->
<g id="edge2" class="edge">
<title>AppRoutingModule&#45;&gt;AppModule</title>
<path fill="none" stroke="black" d="M134.28,-84.91C134.28,-84.91 134.28,-103.79 134.28,-103.79"/>
<polygon fill="black" stroke="black" points="130.78,-103.79 134.28,-113.79 137.78,-103.79 130.78,-103.79"/>
</g>
<!-- PokemonCenterComponent -->
<g id="node5" class="node">
<title>PokemonCenterComponent</title>
<polygon fill="#ffffb3" stroke="black" points="493.54,-84.8 322.46,-84.8 322.46,-48.8 493.54,-48.8 493.54,-84.8"/>
<text text-anchor="middle" x="408" y="-62.6" font-family="Times,serif" font-size="14.00">PokemonCenterComponent</text>
</g>
<!-- PokemonCenterModule -->
<g id="node6" class="node">
<title>PokemonCenterModule</title>
<polygon fill="#8dd3c7" stroke="black" points="482.75,-149.8 479.75,-153.8 458.75,-153.8 455.75,-149.8 333.25,-149.8 333.25,-113.8 482.75,-113.8 482.75,-149.8"/>
<text text-anchor="middle" x="408" y="-127.6" font-family="Times,serif" font-size="14.00">PokemonCenterModule</text>
</g>
<!-- PokemonCenterComponent&#45;&gt;PokemonCenterModule -->
<g id="edge4" class="edge">
<title>PokemonCenterComponent&#45;&gt;PokemonCenterModule</title>
<path fill="none" stroke="black" d="M408,-84.91C408,-84.91 408,-103.79 408,-103.79"/>
<polygon fill="black" stroke="black" points="404.5,-103.79 408,-113.79 411.5,-103.79 404.5,-103.79"/>
</g>
<!-- SelectedPokemonComponent -->
<g id="node7" class="node">
<title>SelectedPokemonComponent</title>
<polygon fill="#ffffb3" stroke="black" points="715.64,-84.8 534.36,-84.8 534.36,-48.8 715.64,-48.8 715.64,-84.8"/>
<text text-anchor="middle" x="625" y="-62.6" font-family="Times,serif" font-size="14.00">SelectedPokemonComponent</text>
</g>
<!-- SelectedPokemonModule -->
<g id="node8" class="node">
<title>SelectedPokemonModule</title>
<polygon fill="#8dd3c7" stroke="black" points="704.86,-149.8 701.86,-153.8 680.86,-153.8 677.86,-149.8 545.14,-149.8 545.14,-113.8 704.86,-113.8 704.86,-149.8"/>
<text text-anchor="middle" x="625" y="-127.6" font-family="Times,serif" font-size="14.00">SelectedPokemonModule</text>
</g>
<!-- SelectedPokemonComponent&#45;&gt;SelectedPokemonModule -->
<g id="edge5" class="edge">
<title>SelectedPokemonComponent&#45;&gt;SelectedPokemonModule</title>
<path fill="none" stroke="black" d="M625,-84.91C625,-84.91 625,-103.79 625,-103.79"/>
<polygon fill="black" stroke="black" points="621.5,-103.79 625,-113.79 628.5,-103.79 621.5,-103.79"/>
</g>
</g>
</svg>
